<mxfile host="65bd71144e">
    <diagram id="9uVwyfsfCK1pvOovjBuG" name="PÃ¡gina-1">
        <mxGraphModel dx="1441" dy="929" grid="1" gridSize="10" guides="1" tooltips="1" connect="1" arrows="1" fold="1" page="0" pageScale="1" pageWidth="1200" pageHeight="1920" background="none" math="0" shadow="1">
            <root>
                <mxCell id="0"/>
                <mxCell id="1" parent="0"/>
                <mxCell id="Qtg1uJjCrPA5Q5Fs2Zk5-1" value="" style="shape=process;whiteSpace=wrap;html=1;backgroundOutline=1;fillColor=#f5f5f5;strokeColor=#666666;fontColor=#333333;" parent="1" vertex="1">
                    <mxGeometry x="20" y="20" width="190" height="90" as="geometry"/>
                </mxCell>
                <mxCell id="Qtg1uJjCrPA5Q5Fs2Zk5-2" value="&lt;b&gt;&lt;i&gt;&lt;u&gt;&lt;font face=&quot;Courier New&quot;&gt;&lt;br&gt;Hi! Welcome to the game&lt;br&gt;&lt;br&gt;Start?&lt;/font&gt;&lt;/u&gt;&lt;/i&gt;&lt;/b&gt;" style="text;html=1;fillColor=#f5f5f5;align=center;verticalAlign=middle;whiteSpace=wrap;rounded=0;strokeColor=#666666;fontColor=#333333;" parent="1" vertex="1">
                    <mxGeometry x="40" y="20" width="150" height="90" as="geometry"/>
                </mxCell>
                <mxCell id="Qtg1uJjCrPA5Q5Fs2Zk5-4" value="&lt;font style=&quot;font-size: 15px;&quot;&gt;No&lt;br&gt;&lt;/font&gt;" style="endArrow=classic;html=1;rounded=0;fontFamily=Courier New;" parent="1" edge="1">
                    <mxGeometry relative="1" as="geometry">
                        <mxPoint x="210" y="70" as="sourcePoint"/>
                        <mxPoint x="310" y="70" as="targetPoint"/>
                        <Array as="points"/>
                    </mxGeometry>
                </mxCell>
                <mxCell id="Qtg1uJjCrPA5Q5Fs2Zk5-6" value="&lt;font style=&quot;font-size: 15px;&quot;&gt;yes&lt;/font&gt;" style="endArrow=classic;html=1;rounded=0;fontFamily=Courier New;exitX=0.5;exitY=1;exitDx=0;exitDy=0;" parent="1" source="Qtg1uJjCrPA5Q5Fs2Zk5-2" edge="1">
                    <mxGeometry relative="1" as="geometry">
                        <mxPoint x="120" y="150" as="sourcePoint"/>
                        <mxPoint x="115" y="180" as="targetPoint"/>
                        <Array as="points"/>
                    </mxGeometry>
                </mxCell>
                <mxCell id="Qtg1uJjCrPA5Q5Fs2Zk5-8" value="Text" style="text;html=1;align=center;verticalAlign=middle;resizable=0;points=[];autosize=1;strokeColor=none;fillColor=none;fontSize=15;fontFamily=Courier New;" parent="1" vertex="1">
                    <mxGeometry x="320" y="45" width="60" height="30" as="geometry"/>
                </mxCell>
                <mxCell id="Qtg1uJjCrPA5Q5Fs2Zk5-9" value="&lt;font color=&quot;#333333&quot;&gt;&lt;span style=&quot;font-family: &amp;#34;helvetica&amp;#34; ; font-size: 12px ; text-align: left ; background-color: rgb(255 , 204 , 153)&quot;&gt;xxxxxxxxxxxxxxxxxxxxxxxxxxxxxxxxxxxxxxxxxxxxxxx&lt;/span&gt;&lt;br style=&quot;font-family: &amp;#34;helvetica&amp;#34; ; font-size: 12px ; text-align: left&quot;&gt;&lt;span style=&quot;font-family: &amp;#34;helvetica&amp;#34; ; font-size: 12px ; text-align: left ; background-color: rgb(255 , 204 , 153)&quot;&gt;xxxxxxxxxxxxxxxxxxxxxxxxxxxxxxxxxxxxxxxxxxxxxxx&lt;/span&gt;&lt;br style=&quot;font-family: &amp;#34;helvetica&amp;#34; ; font-size: 12px ; text-align: left&quot;&gt;&lt;span style=&quot;font-size: 12px ; text-align: left ; font-family: &amp;#34;helvetica&amp;#34;&quot;&gt;xxxxxxxxxxxxxxxxxxxxxxxxxxxxxxxxxxxxxxxxxxxxxxx&lt;/span&gt;&lt;br style=&quot;font-family: &amp;#34;helvetica&amp;#34; ; font-size: 12px ; text-align: left&quot;&gt;&lt;/font&gt;&lt;span style=&quot;font-size: 12px ; text-align: left ; background-color: rgb(255 , 204 , 153)&quot;&gt;&lt;font color=&quot;#333333&quot;&gt;&lt;font face=&quot;Helvetica&quot;&gt;xxxxxxxxxxxxxxxxxxxxxxxxxxxxxxxxxxxxxxxxxxxxxx&lt;/font&gt;&lt;br&gt;&lt;br&gt;&lt;b&gt;TURN OFF THE PC :(&lt;br&gt;&lt;/b&gt;&lt;/font&gt;&lt;br&gt;&lt;/span&gt;" style="rounded=0;whiteSpace=wrap;html=1;fontFamily=Courier New;fontSize=15;fillColor=#fad7ac;strokeColor=#b46504;" parent="1" vertex="1">
                    <mxGeometry x="310" y="10" width="310" height="125" as="geometry"/>
                </mxCell>
                <mxCell id="Qtg1uJjCrPA5Q5Fs2Zk5-13" value="&lt;font style=&quot;font-size: 12px&quot; color=&quot;#333333&quot;&gt;&lt;b&gt;You be in a cave without light, only having a lit matchstick. What do you should to do?&lt;/b&gt;&lt;/font&gt;" style="rounded=0;whiteSpace=wrap;html=1;fontFamily=Courier New;fontSize=15;fillColor=#B3FF66;strokeColor=#82b366;" parent="1" vertex="1">
                    <mxGeometry x="30" y="180" width="190" height="110" as="geometry"/>
                </mxCell>
                <mxCell id="Qtg1uJjCrPA5Q5Fs2Zk5-14" value="" style="endArrow=none;dashed=1;html=1;rounded=0;fontFamily=Courier New;fontSize=12;exitX=1;exitY=0.5;exitDx=0;exitDy=0;" parent="1" source="Qtg1uJjCrPA5Q5Fs2Zk5-13" edge="1">
                    <mxGeometry width="50" height="50" relative="1" as="geometry">
                        <mxPoint x="350" y="260" as="sourcePoint"/>
                        <mxPoint x="300" y="235" as="targetPoint"/>
                    </mxGeometry>
                </mxCell>
                <mxCell id="Qtg1uJjCrPA5Q5Fs2Zk5-16" value="&lt;font color=&quot;#333333&quot;&gt;&lt;span style=&quot;font-size: 12px&quot;&gt;Wait &lt;/span&gt;&lt;span style=&quot;font-size: 12px&quot;&gt;there alone&lt;/span&gt;&lt;/font&gt;" style="rounded=0;whiteSpace=wrap;html=1;fontFamily=Courier New;fontSize=15;fillColor=#99FFFF;strokeColor=#6c8ebf;" parent="1" vertex="1">
                    <mxGeometry x="300" y="210" width="80" height="50" as="geometry"/>
                </mxCell>
                <mxCell id="Qtg1uJjCrPA5Q5Fs2Zk5-17" value="" style="endArrow=none;dashed=1;html=1;rounded=0;fontFamily=Courier New;fontSize=12;exitX=0.5;exitY=1;exitDx=0;exitDy=0;" parent="1" source="Qtg1uJjCrPA5Q5Fs2Zk5-13" edge="1">
                    <mxGeometry width="50" height="50" relative="1" as="geometry">
                        <mxPoint x="110" y="310" as="sourcePoint"/>
                        <mxPoint x="125" y="370" as="targetPoint"/>
                    </mxGeometry>
                </mxCell>
                <mxCell id="Qtg1uJjCrPA5Q5Fs2Zk5-18" value="&lt;span style=&quot;font-size: 12px&quot;&gt;&lt;font color=&quot;#333333&quot;&gt;Find a door&lt;/font&gt;&lt;/span&gt;" style="rounded=0;whiteSpace=wrap;html=1;fontFamily=Courier New;fontSize=15;fillColor=#99FFFF;strokeColor=#6c8ebf;" parent="1" vertex="1">
                    <mxGeometry x="85" y="360" width="80" height="50" as="geometry"/>
                </mxCell>
                <mxCell id="Qtg1uJjCrPA5Q5Fs2Zk5-20" value="&lt;h1&gt;Ev1&lt;/h1&gt;" style="text;html=1;strokeColor=none;fillColor=none;spacing=5;spacingTop=-20;whiteSpace=wrap;overflow=hidden;rounded=0;fontFamily=Courier New;fontSize=12;" parent="1" vertex="1">
                    <mxGeometry x="160" y="140" width="80" height="40" as="geometry"/>
                </mxCell>
                <mxCell id="Qtg1uJjCrPA5Q5Fs2Zk5-22" value="&lt;h1 style=&quot;font-size: 15px;&quot;&gt;&lt;span style=&quot;background-color: initial;&quot;&gt;Ev1.&lt;/span&gt;Op1&lt;/h1&gt;" style="text;html=1;strokeColor=none;fillColor=none;spacing=5;spacingTop=-20;whiteSpace=wrap;overflow=hidden;rounded=0;fontFamily=Courier New;fontSize=12;" parent="1" vertex="1">
                    <mxGeometry x="300" y="190" width="80" height="40" as="geometry"/>
                </mxCell>
                <mxCell id="Qtg1uJjCrPA5Q5Fs2Zk5-24" value="&lt;font style=&quot;font-size: 12px&quot;&gt;&lt;font color=&quot;#333333&quot;&gt;&lt;span style=&quot;font-size: 12px&quot;&gt;You find a child to your side&lt;/span&gt;&lt;br&gt;&lt;span style=&quot;font-size: 12px&quot;&gt;starts remember to yourself when you was child&lt;/span&gt;&lt;/font&gt;&lt;br&gt;&lt;/font&gt;" style="rounded=0;whiteSpace=wrap;html=1;fontFamily=Courier New;fontSize=15;fillColor=#B3FF66;strokeColor=#82b366;" parent="1" vertex="1">
                    <mxGeometry x="460" y="180" width="190" height="110" as="geometry"/>
                </mxCell>
                <mxCell id="Qtg1uJjCrPA5Q5Fs2Zk5-25" value="" style="endArrow=none;dashed=1;html=1;rounded=0;fontFamily=Courier New;fontSize=12;exitX=1;exitY=0.5;exitDx=0;exitDy=0;" parent="1" edge="1">
                    <mxGeometry width="50" height="50" relative="1" as="geometry">
                        <mxPoint x="380" y="234.5" as="sourcePoint"/>
                        <mxPoint x="460" y="234.5" as="targetPoint"/>
                    </mxGeometry>
                </mxCell>
                <mxCell id="Qtg1uJjCrPA5Q5Fs2Zk5-26" value="&lt;h1&gt;Ev1.Op1.Ev1.1&lt;/h1&gt;" style="text;html=1;strokeColor=none;fillColor=none;spacing=5;spacingTop=-20;whiteSpace=wrap;overflow=hidden;rounded=0;fontFamily=Courier New;fontSize=12;" parent="1" vertex="1">
                    <mxGeometry x="460" y="140" width="210" height="40" as="geometry"/>
                </mxCell>
                <mxCell id="Qtg1uJjCrPA5Q5Fs2Zk5-28" value="" style="endArrow=none;dashed=1;html=1;rounded=0;fontFamily=Courier New;fontSize=12;exitX=1;exitY=0.5;exitDx=0;exitDy=0;" parent="1" edge="1">
                    <mxGeometry width="50" height="50" relative="1" as="geometry">
                        <mxPoint x="650" y="234.5" as="sourcePoint"/>
                        <mxPoint x="730" y="234.5" as="targetPoint"/>
                    </mxGeometry>
                </mxCell>
                <mxCell id="Qtg1uJjCrPA5Q5Fs2Zk5-29" value="" style="endArrow=none;dashed=1;html=1;rounded=0;fontFamily=Courier New;fontSize=12;exitX=0.5;exitY=1;exitDx=0;exitDy=0;" parent="1" edge="1">
                    <mxGeometry width="50" height="50" relative="1" as="geometry">
                        <mxPoint x="570" y="290" as="sourcePoint"/>
                        <mxPoint x="570" y="370" as="targetPoint"/>
                    </mxGeometry>
                </mxCell>
                <mxCell id="Qtg1uJjCrPA5Q5Fs2Zk5-30" value="&lt;h1 style=&quot;font-size: 15px;&quot;&gt;Ev1.Op1.Ev1.1&lt;span style=&quot;background-color: initial;&quot;&gt;.&lt;/span&gt;Op2&lt;/h1&gt;" style="text;html=1;strokeColor=none;fillColor=none;spacing=5;spacingTop=-20;whiteSpace=wrap;overflow=hidden;rounded=0;fontFamily=Courier New;fontSize=12;" parent="1" vertex="1">
                    <mxGeometry x="520" y="430" width="180" height="20" as="geometry"/>
                </mxCell>
                <mxCell id="Qtg1uJjCrPA5Q5Fs2Zk5-31" value="&lt;span style=&quot;font-size: 12px&quot;&gt;&lt;font color=&quot;#333333&quot;&gt;you put out the matchstick&lt;/font&gt;&lt;/span&gt;" style="rounded=0;whiteSpace=wrap;html=1;fontFamily=Courier New;fontSize=15;fillColor=#99FFFF;strokeColor=#6c8ebf;" parent="1" vertex="1">
                    <mxGeometry x="530" y="370" width="110" height="50" as="geometry"/>
                </mxCell>
                <mxCell id="Qtg1uJjCrPA5Q5Fs2Zk5-32" value="&lt;span style=&quot;font-size: 12px&quot;&gt;&lt;font color=&quot;#333333&quot;&gt;You decide to be quiet&lt;/font&gt;&lt;/span&gt;" style="rounded=0;whiteSpace=wrap;html=1;fontFamily=Courier New;fontSize=15;fillColor=#99FFFF;strokeColor=#6c8ebf;" parent="1" vertex="1">
                    <mxGeometry x="730" y="210" width="90" height="50" as="geometry"/>
                </mxCell>
                <mxCell id="Qtg1uJjCrPA5Q5Fs2Zk5-33" value="&lt;h1 style=&quot;font-size: 15px;&quot;&gt;Ev1.Op1.Ev1.1&lt;span style=&quot;background-color: initial;&quot;&gt;.&lt;/span&gt;Op1&lt;/h1&gt;" style="text;html=1;strokeColor=none;fillColor=none;spacing=5;spacingTop=-20;whiteSpace=wrap;overflow=hidden;rounded=0;fontFamily=Courier New;fontSize=12;" parent="1" vertex="1">
                    <mxGeometry x="780" y="190" width="170" height="20" as="geometry"/>
                </mxCell>
                <mxCell id="Qtg1uJjCrPA5Q5Fs2Zk5-35" value="" style="endArrow=none;dashed=1;html=1;rounded=0;fontFamily=Courier New;fontSize=12;exitX=0.5;exitY=1;exitDx=0;exitDy=0;" parent="1" edge="1">
                    <mxGeometry width="50" height="50" relative="1" as="geometry">
                        <mxPoint x="769.5" y="130" as="sourcePoint"/>
                        <mxPoint x="769.5" y="210" as="targetPoint"/>
                    </mxGeometry>
                </mxCell>
                <mxCell id="Qtg1uJjCrPA5Q5Fs2Zk5-36" value="Options: Green&lt;br&gt;Questions: Aqua&lt;br&gt;End: Black" style="text;html=1;align=center;verticalAlign=middle;resizable=0;points=[];autosize=1;strokeColor=none;fillColor=none;fontSize=15;fontFamily=Courier New;" parent="1" vertex="1">
                    <mxGeometry x="990" y="25" width="160" height="70" as="geometry"/>
                </mxCell>
                <mxCell id="Qtg1uJjCrPA5Q5Fs2Zk5-37" value="&lt;font style=&quot;font-size: 12px;&quot;&gt;&lt;font style=&quot;font-size: 12px;&quot;&gt;HI MR ROBOT!!!&amp;nbsp;&lt;br style=&quot;&quot;&gt;&lt;/font&gt;&lt;b style=&quot;&quot;&gt;&lt;u style=&quot;&quot;&gt;(Unlock with password)&lt;/u&gt;&lt;/b&gt;&lt;/font&gt;" style="rounded=0;whiteSpace=wrap;html=1;fontFamily=Courier New;fontSize=15;fillColor=#4D4D4D;strokeColor=#6c8ebf;" parent="1" vertex="1">
                    <mxGeometry x="710" y="67.5" width="120" height="60" as="geometry"/>
                </mxCell>
                <mxCell id="Qtg1uJjCrPA5Q5Fs2Zk5-39" value="&lt;h1 style=&quot;font-size: 15px;&quot;&gt;&lt;span style=&quot;background-color: initial;&quot;&gt;Ev1.Op1.Ev1.1&lt;/span&gt;&lt;span style=&quot;background-color: initial;&quot;&gt;.&lt;/span&gt;&lt;span style=&quot;background-color: initial;&quot;&gt;Op1.&lt;/span&gt;End&lt;/h1&gt;&lt;div&gt;&lt;br&gt;&lt;/div&gt;" style="text;html=1;strokeColor=none;fillColor=none;spacing=5;spacingTop=-20;whiteSpace=wrap;overflow=hidden;rounded=0;fontFamily=Courier New;fontSize=12;" parent="1" vertex="1">
                    <mxGeometry x="700" y="42.5" width="210" height="25" as="geometry"/>
                </mxCell>
                <mxCell id="Qtg1uJjCrPA5Q5Fs2Zk5-40" value="" style="endArrow=none;dashed=1;html=1;rounded=0;fontFamily=Courier New;fontSize=12;exitX=1;exitY=0.5;exitDx=0;exitDy=0;" parent="1" edge="1">
                    <mxGeometry width="50" height="50" relative="1" as="geometry">
                        <mxPoint x="752.5" y="590" as="sourcePoint"/>
                        <mxPoint x="832.5" y="590" as="targetPoint"/>
                    </mxGeometry>
                </mxCell>
                <mxCell id="Qtg1uJjCrPA5Q5Fs2Zk5-41" value="&lt;font style=&quot;font-size: 12px;&quot;&gt;Enjoy!!&lt;br&gt;You can't go out&lt;br&gt;&lt;b&gt;&lt;u&gt;(loop infinity)&lt;/u&gt;&lt;/b&gt;&lt;br&gt;&lt;/font&gt;" style="rounded=0;whiteSpace=wrap;html=1;fontFamily=Courier New;fontSize=15;fillColor=#4D4D4D;strokeColor=#6c8ebf;" parent="1" vertex="1">
                    <mxGeometry x="720" y="365" width="140" height="65" as="geometry"/>
                </mxCell>
                <mxCell id="Qtg1uJjCrPA5Q5Fs2Zk5-42" value="&lt;h1 style=&quot;font-size: 15px;&quot;&gt;&lt;span style=&quot;background-color: initial;&quot;&gt;Ev1.Op1.Ev1.1&lt;/span&gt;&lt;span style=&quot;background-color: initial;&quot;&gt;.&lt;/span&gt;&lt;span style=&quot;background-color: initial;&quot;&gt;Op2&lt;/span&gt;.End&lt;/h1&gt;&lt;div&gt;&lt;br&gt;&lt;/div&gt;" style="text;html=1;strokeColor=none;fillColor=none;spacing=5;spacingTop=-20;whiteSpace=wrap;overflow=hidden;rounded=0;fontFamily=Courier New;fontSize=12;" parent="1" vertex="1">
                    <mxGeometry x="710" y="345" width="200" height="25" as="geometry"/>
                </mxCell>
                <mxCell id="Qtg1uJjCrPA5Q5Fs2Zk5-43" value="&lt;font&gt;&lt;span style=&quot;font-size: 12px&quot;&gt;&lt;font color=&quot;#333333&quot;&gt;You find the door hidden almost with don't see nothing&lt;/font&gt;&lt;/span&gt;&lt;br&gt;&lt;/font&gt;" style="rounded=0;whiteSpace=wrap;html=1;fontFamily=Courier New;fontSize=15;fillColor=#B3FF66;strokeColor=#82b366;" parent="1" vertex="1">
                    <mxGeometry x="30" y="530" width="190" height="110" as="geometry"/>
                </mxCell>
                <mxCell id="Qtg1uJjCrPA5Q5Fs2Zk5-44" value="" style="endArrow=none;dashed=1;html=1;rounded=0;fontFamily=Courier New;fontSize=12;exitX=0.5;exitY=1;exitDx=0;exitDy=0;entryX=-0.005;entryY=1.025;entryDx=0;entryDy=0;entryPerimeter=0;" parent="1" target="Qtg1uJjCrPA5Q5Fs2Zk5-52" edge="1">
                    <mxGeometry width="50" height="50" relative="1" as="geometry">
                        <mxPoint x="124.5" y="410" as="sourcePoint"/>
                        <mxPoint x="124.5" y="490" as="targetPoint"/>
                    </mxGeometry>
                </mxCell>
                <mxCell id="Qtg1uJjCrPA5Q5Fs2Zk5-49" value="&lt;h1 style=&quot;font-size: 15px;&quot;&gt;&lt;span style=&quot;background-color: initial;&quot;&gt;Ev1.&lt;/span&gt;Op2&lt;/h1&gt;" style="text;html=1;strokeColor=none;fillColor=none;spacing=5;spacingTop=-20;whiteSpace=wrap;overflow=hidden;rounded=0;fontFamily=Courier New;fontSize=12;" parent="1" vertex="1">
                    <mxGeometry x="140" y="337.5" width="80" height="40" as="geometry"/>
                </mxCell>
                <mxCell id="Qtg1uJjCrPA5Q5Fs2Zk5-52" value="&lt;h1&gt;Ev1.Op2.Ev1.1&lt;/h1&gt;" style="text;html=1;strokeColor=none;fillColor=none;spacing=5;spacingTop=-20;whiteSpace=wrap;overflow=hidden;rounded=0;fontFamily=Courier New;fontSize=12;" parent="1" vertex="1">
                    <mxGeometry x="125" y="490" width="210" height="40" as="geometry"/>
                </mxCell>
                <mxCell id="r63pEHake4h-wbilJ2U2-1" value="" style="html=1;strokeColor=#009900;shadow=1;fillColor=#97D077;" parent="1" edge="1">
                    <mxGeometry width="50" height="50" relative="1" as="geometry">
                        <mxPoint y="480" as="sourcePoint"/>
                        <mxPoint x="1200" y="480" as="targetPoint"/>
                    </mxGeometry>
                </mxCell>
                <mxCell id="r63pEHake4h-wbilJ2U2-7" value="" style="endArrow=none;dashed=1;html=1;rounded=0;fontFamily=Courier New;fontSize=12;exitX=1;exitY=0.5;exitDx=0;exitDy=0;" parent="1" source="Qtg1uJjCrPA5Q5Fs2Zk5-43" edge="1">
                    <mxGeometry width="50" height="50" relative="1" as="geometry">
                        <mxPoint x="230" y="585" as="sourcePoint"/>
                        <mxPoint x="290" y="584.5" as="targetPoint"/>
                    </mxGeometry>
                </mxCell>
                <mxCell id="r63pEHake4h-wbilJ2U2-8" value="" style="endArrow=none;dashed=1;html=1;rounded=0;fontFamily=Courier New;fontSize=12;exitX=0.5;exitY=1;exitDx=0;exitDy=0;" parent="1" edge="1">
                    <mxGeometry width="50" height="50" relative="1" as="geometry">
                        <mxPoint x="125" y="640" as="sourcePoint"/>
                        <mxPoint x="125" y="720" as="targetPoint"/>
                    </mxGeometry>
                </mxCell>
                <mxCell id="r63pEHake4h-wbilJ2U2-9" value="&lt;font style=&quot;font-size: 12px&quot; color=&quot;#333333&quot;&gt;Go into the door blind&lt;/font&gt;" style="rounded=0;whiteSpace=wrap;html=1;fontFamily=Courier New;fontSize=15;fillColor=#99FFFF;strokeColor=#6c8ebf;" parent="1" vertex="1">
                    <mxGeometry x="280" y="560" width="90" height="50" as="geometry"/>
                </mxCell>
                <mxCell id="r63pEHake4h-wbilJ2U2-10" value="&lt;font style=&quot;font-size: 12px&quot; color=&quot;#333333&quot;&gt;Sit for a long time&lt;/font&gt;" style="rounded=0;whiteSpace=wrap;html=1;fontFamily=Courier New;fontSize=15;fillColor=#99FFFF;strokeColor=#6c8ebf;" parent="1" vertex="1">
                    <mxGeometry x="90" y="710" width="80" height="50" as="geometry"/>
                </mxCell>
                <mxCell id="r63pEHake4h-wbilJ2U2-12" value="&lt;h1 style=&quot;font-size: 15px&quot;&gt;Ev1.Op2.Ev1.1.Op1&lt;/h1&gt;" style="text;html=1;strokeColor=none;fillColor=none;spacing=5;spacingTop=-20;whiteSpace=wrap;overflow=hidden;rounded=0;fontFamily=Courier New;fontSize=12;" parent="1" vertex="1">
                    <mxGeometry x="330" y="540" width="190" height="40" as="geometry"/>
                </mxCell>
                <mxCell id="r63pEHake4h-wbilJ2U2-13" value="&lt;h1 style=&quot;font-size: 15px&quot;&gt;Ev1.Op2.Ev1.1.Op2&lt;/h1&gt;&lt;div&gt;&lt;br&gt;&lt;/div&gt;" style="text;html=1;strokeColor=none;fillColor=none;spacing=5;spacingTop=-20;whiteSpace=wrap;overflow=hidden;rounded=0;fontFamily=Courier New;fontSize=12;" parent="1" vertex="1">
                    <mxGeometry x="135" y="690" width="190" height="40" as="geometry"/>
                </mxCell>
                <mxCell id="r63pEHake4h-wbilJ2U2-14" value="&lt;div&gt;&lt;font style=&quot;font-size: 12px&quot; face=&quot;Courier New&quot; color=&quot;#333333&quot;&gt;&lt;font style=&quot;font-size: 12px&quot;&gt;This is why we wanted.... &lt;/font&gt;&lt;br&gt;&lt;/font&gt;&lt;/div&gt;&lt;div&gt;&lt;font style=&quot;font-size: 12px&quot; face=&quot;Courier New&quot;&gt;&lt;font color=&quot;#333333&quot;&gt;You are inside of a tridimensional space&lt;/font&gt;&lt;br&gt;&lt;/font&gt;&lt;/div&gt;" style="rounded=0;whiteSpace=wrap;html=1;fontFamily=Courier New;fontSize=15;fillColor=#B3FF66;strokeColor=#82b366;" parent="1" vertex="1">
                    <mxGeometry x="547.5" y="525" width="205" height="120" as="geometry"/>
                </mxCell>
                <mxCell id="r63pEHake4h-wbilJ2U2-15" value="" style="endArrow=none;dashed=1;html=1;rounded=0;fontFamily=Courier New;fontSize=12;exitX=1;exitY=0.5;exitDx=0;exitDy=0;entryX=0;entryY=0.5;entryDx=0;entryDy=0;" parent="1" source="r63pEHake4h-wbilJ2U2-9" target="r63pEHake4h-wbilJ2U2-14" edge="1">
                    <mxGeometry width="50" height="50" relative="1" as="geometry">
                        <mxPoint x="380" y="584.5" as="sourcePoint"/>
                        <mxPoint x="510" y="584" as="targetPoint"/>
                    </mxGeometry>
                </mxCell>
                <mxCell id="r63pEHake4h-wbilJ2U2-16" value="&lt;div align=&quot;center&quot;&gt;&lt;pre class=&quot;tw-data-text tw-text-large tw-ta&quot; id=&quot;tw-target-text&quot; dir=&quot;ltr&quot;&gt;&lt;font style=&quot;font-size: 12px&quot;&gt;&lt;font color=&quot;#333333&quot;&gt;&lt;span class=&quot;Y2IQFc&quot; lang=&quot;en&quot;&gt;instantly&lt;/span&gt;, you take &lt;br&gt;out a letter inside of&lt;br&gt;your jacket without name&lt;/font&gt;&lt;br&gt;&lt;/font&gt;&lt;/pre&gt;&lt;/div&gt;" style="rounded=0;whiteSpace=wrap;html=1;fontFamily=Courier New;fontSize=15;fillColor=#B3FF66;strokeColor=#82b366;align=center;" parent="1" vertex="1">
                    <mxGeometry x="276.5" y="730" width="187" height="100" as="geometry"/>
                </mxCell>
                <mxCell id="r63pEHake4h-wbilJ2U2-17" value="" style="endArrow=none;dashed=1;html=1;rounded=0;fontFamily=Courier New;fontSize=12;exitX=1;exitY=0.75;exitDx=0;exitDy=0;entryX=-0.005;entryY=0.172;entryDx=0;entryDy=0;entryPerimeter=0;" parent="1" source="r63pEHake4h-wbilJ2U2-10" target="r63pEHake4h-wbilJ2U2-16" edge="1">
                    <mxGeometry width="50" height="50" relative="1" as="geometry">
                        <mxPoint x="170" y="750.5" as="sourcePoint"/>
                        <mxPoint x="230" y="750" as="targetPoint"/>
                    </mxGeometry>
                </mxCell>
                <mxCell id="r63pEHake4h-wbilJ2U2-18" value="" style="endArrow=none;dashed=1;html=1;rounded=0;fontFamily=Courier New;fontSize=12;exitX=1;exitY=0.5;exitDx=0;exitDy=0;" parent="1" edge="1">
                    <mxGeometry width="50" height="50" relative="1" as="geometry">
                        <mxPoint x="649.9999999999995" y="404.5" as="sourcePoint"/>
                        <mxPoint x="729.9999999999995" y="404.5" as="targetPoint"/>
                    </mxGeometry>
                </mxCell>
                <mxCell id="r63pEHake4h-wbilJ2U2-19" value="&lt;font style=&quot;font-size: 12px&quot; color=&quot;#333333&quot;&gt;You can see through that, you are finally dead, and around you starts start to show all kind of lights with memories during your live&lt;/font&gt;&lt;font style=&quot;font-size: 12px&quot;&gt;&lt;br&gt;&lt;/font&gt;" style="rounded=0;whiteSpace=wrap;html=1;fontFamily=Courier New;fontSize=15;fillColor=#B3FF66;strokeColor=#82b366;" parent="1" vertex="1">
                    <mxGeometry x="830" y="530" width="250" height="140" as="geometry"/>
                </mxCell>
                <mxCell id="r63pEHake4h-wbilJ2U2-21" value="" style="endArrow=none;dashed=1;html=1;rounded=0;fontFamily=Courier New;fontSize=12;exitX=0.5;exitY=1;exitDx=0;exitDy=0;" parent="1" edge="1">
                    <mxGeometry width="50" height="50" relative="1" as="geometry">
                        <mxPoint x="954.4999999999995" y="670" as="sourcePoint"/>
                        <mxPoint x="954.4999999999995" y="750" as="targetPoint"/>
                    </mxGeometry>
                </mxCell>
                <mxCell id="r63pEHake4h-wbilJ2U2-22" value="&lt;font style=&quot;font-size: 12px&quot;&gt;Welcome to the island!!&lt;br&gt;&lt;b&gt;&lt;u&gt;(ASCII Island)&lt;/u&gt;&lt;/b&gt;&lt;br&gt;&lt;/font&gt;" style="rounded=0;whiteSpace=wrap;html=1;fontFamily=Courier New;fontSize=15;fillColor=#4D4D4D;strokeColor=#6c8ebf;" parent="1" vertex="1">
                    <mxGeometry x="980" y="1030" width="140" height="65" as="geometry"/>
                </mxCell>
                <mxCell id="r63pEHake4h-wbilJ2U2-23" value="" style="endArrow=none;dashed=1;html=1;rounded=0;fontFamily=Courier New;fontSize=12;exitX=1;exitY=0.75;exitDx=0;exitDy=0;entryX=-0.005;entryY=0.172;entryDx=0;entryDy=0;entryPerimeter=0;" parent="1" edge="1">
                    <mxGeometry width="50" height="50" relative="1" as="geometry">
                        <mxPoint x="465" y="780.5" as="sourcePoint"/>
                        <mxPoint x="570.565" y="780.1999999999998" as="targetPoint"/>
                    </mxGeometry>
                </mxCell>
                <mxCell id="r63pEHake4h-wbilJ2U2-24" value="" style="endArrow=none;dashed=1;html=1;rounded=0;fontFamily=Courier New;fontSize=12;exitX=0.5;exitY=1;exitDx=0;exitDy=0;" parent="1" edge="1">
                    <mxGeometry width="50" height="50" relative="1" as="geometry">
                        <mxPoint x="369" y="830" as="sourcePoint"/>
                        <mxPoint x="369" y="910" as="targetPoint"/>
                    </mxGeometry>
                </mxCell>
                <mxCell id="r63pEHake4h-wbilJ2U2-25" value="&lt;font style=&quot;font-size: 12px&quot; color=&quot;#333333&quot;&gt;Open it&lt;/font&gt;" style="rounded=0;whiteSpace=wrap;html=1;fontFamily=Courier New;fontSize=15;fillColor=#99FFFF;strokeColor=#6c8ebf;" parent="1" vertex="1">
                    <mxGeometry x="560" y="755" width="80" height="50" as="geometry"/>
                </mxCell>
                <mxCell id="r63pEHake4h-wbilJ2U2-26" value="&lt;font style=&quot;font-size: 12px&quot; color=&quot;#333333&quot;&gt;Destroy it&lt;/font&gt;" style="rounded=0;whiteSpace=wrap;html=1;fontFamily=Courier New;fontSize=15;fillColor=#99FFFF;strokeColor=#6c8ebf;" parent="1" vertex="1">
                    <mxGeometry x="330" y="900" width="80" height="50" as="geometry"/>
                </mxCell>
                <mxCell id="r63pEHake4h-wbilJ2U2-27" value="&lt;font style=&quot;font-size: 12px&quot; color=&quot;#333333&quot;&gt;Island&lt;/font&gt;" style="rounded=0;whiteSpace=wrap;html=1;fontFamily=Courier New;fontSize=15;fillColor=#99FFFF;strokeColor=#6c8ebf;" parent="1" vertex="1">
                    <mxGeometry x="1000" y="950" width="80" height="50" as="geometry"/>
                </mxCell>
                <mxCell id="r63pEHake4h-wbilJ2U2-28" value="&lt;font style=&quot;font-size: 12px&quot; color=&quot;#333333&quot;&gt;Which place do you want to start your new life?&lt;/font&gt;&lt;font style=&quot;font-size: 12px&quot;&gt;&lt;br&gt;&lt;/font&gt;" style="rounded=0;whiteSpace=wrap;html=1;fontFamily=Courier New;fontSize=15;fillColor=#B3FF66;strokeColor=#82b366;" parent="1" vertex="1">
                    <mxGeometry x="832.5" y="740" width="250" height="140" as="geometry"/>
                </mxCell>
                <mxCell id="r63pEHake4h-wbilJ2U2-29" value="" style="endArrow=none;dashed=1;html=1;rounded=0;fontFamily=Courier New;fontSize=12;exitX=0.5;exitY=1;exitDx=0;exitDy=0;entryX=0.5;entryY=0;entryDx=0;entryDy=0;" parent="1" target="r63pEHake4h-wbilJ2U2-27" edge="1">
                    <mxGeometry width="50" height="50" relative="1" as="geometry">
                        <mxPoint x="1039.9999999999995" y="880" as="sourcePoint"/>
                        <mxPoint x="1039.9999999999995" y="960" as="targetPoint"/>
                    </mxGeometry>
                </mxCell>
                <mxCell id="r63pEHake4h-wbilJ2U2-30" value="" style="endArrow=none;dashed=1;html=1;rounded=0;fontFamily=Courier New;fontSize=12;exitX=0.5;exitY=1;exitDx=0;exitDy=0;entryX=0.429;entryY=0.154;entryDx=0;entryDy=0;entryPerimeter=0;" parent="1" source="r63pEHake4h-wbilJ2U2-27" target="r63pEHake4h-wbilJ2U2-22" edge="1">
                    <mxGeometry width="50" height="50" relative="1" as="geometry">
                        <mxPoint x="1049.9999999999995" y="880" as="sourcePoint"/>
                        <mxPoint x="1049.9999999999995" y="960" as="targetPoint"/>
                    </mxGeometry>
                </mxCell>
                <mxCell id="r63pEHake4h-wbilJ2U2-37" value="&lt;font style=&quot;font-size: 12px&quot;&gt;Welcome to the Forest House!!&lt;br&gt;&lt;b&gt;&lt;u&gt;(ASCII Forest House)&lt;/u&gt;&lt;/b&gt;&lt;br&gt;&lt;/font&gt;" style="rounded=0;whiteSpace=wrap;html=1;fontFamily=Courier New;fontSize=15;fillColor=#4D4D4D;strokeColor=#6c8ebf;" parent="1" vertex="1">
                    <mxGeometry x="777.5" y="1025" width="165" height="80" as="geometry"/>
                </mxCell>
                <mxCell id="r63pEHake4h-wbilJ2U2-38" value="&lt;div&gt;&lt;font style=&quot;font-size: 12px&quot; color=&quot;#333333&quot;&gt;Forest &lt;br&gt;&lt;/font&gt;&lt;/div&gt;&lt;div&gt;&lt;font style=&quot;font-size: 12px&quot;&gt;&lt;font color=&quot;#333333&quot;&gt;House&lt;/font&gt;&lt;br&gt;&lt;/font&gt;&lt;/div&gt;" style="rounded=0;whiteSpace=wrap;html=1;fontFamily=Courier New;fontSize=15;fillColor=#99FFFF;strokeColor=#6c8ebf;" parent="1" vertex="1">
                    <mxGeometry x="810" y="950" width="80" height="50" as="geometry"/>
                </mxCell>
                <mxCell id="r63pEHake4h-wbilJ2U2-39" value="" style="endArrow=none;dashed=1;html=1;rounded=0;fontFamily=Courier New;fontSize=12;exitX=0.5;exitY=1;exitDx=0;exitDy=0;entryX=0.5;entryY=0;entryDx=0;entryDy=0;" parent="1" target="r63pEHake4h-wbilJ2U2-38" edge="1">
                    <mxGeometry width="50" height="50" relative="1" as="geometry">
                        <mxPoint x="850" y="950" as="sourcePoint"/>
                        <mxPoint x="849.9999999999995" y="960" as="targetPoint"/>
                    </mxGeometry>
                </mxCell>
                <mxCell id="r63pEHake4h-wbilJ2U2-40" value="" style="endArrow=none;dashed=1;html=1;rounded=0;fontFamily=Courier New;fontSize=12;exitX=0.5;exitY=1;exitDx=0;exitDy=0;entryX=0.429;entryY=0.154;entryDx=0;entryDy=0;entryPerimeter=0;" parent="1" source="r63pEHake4h-wbilJ2U2-38" target="r63pEHake4h-wbilJ2U2-37" edge="1">
                    <mxGeometry width="50" height="50" relative="1" as="geometry">
                        <mxPoint x="859.9999999999995" y="880" as="sourcePoint"/>
                        <mxPoint x="859.9999999999995" y="960" as="targetPoint"/>
                    </mxGeometry>
                </mxCell>
                <mxCell id="r63pEHake4h-wbilJ2U2-41" value="&lt;div&gt;&lt;div style=&quot;color: rgb(178 , 202 , 205) ; background-color: rgb(5 , 37 , 41) ; font-family: &amp;#34;consolas&amp;#34; , &amp;#34;courier new&amp;#34; , monospace ; line-height: 16px&quot;&gt;&lt;div&gt;&lt;span style=&quot;color: #49e9a6&quot;&gt;&amp;nbsp;Welcome home Trex-Codes,&lt;/span&gt;&lt;/div&gt;&lt;div&gt;&lt;span style=&quot;color: #49e9a6&quot;&gt;&amp;nbsp;we were waiting for you, &lt;/span&gt;&lt;/div&gt;&lt;div&gt;&lt;span style=&quot;color: #49e9a6&quot;&gt;&amp;nbsp;your grandmother is moved to see you again.&lt;/span&gt;&lt;/div&gt;&lt;div&gt;&lt;span style=&quot;color: #49e9a6&quot;&gt;&amp;nbsp;Remember that always we'll be with you&lt;/span&gt;&lt;/div&gt;&lt;div&gt;&lt;span style=&quot;color: #49e9a6&quot;&gt;&amp;nbsp;whatever what happen. we can't separate.&lt;/span&gt;&lt;/div&gt;&lt;div&gt;&lt;span style=&quot;color: #49e9a6&quot;&gt;&amp;nbsp;and all the pain and struggles ended. you will&lt;/span&gt;&lt;/div&gt;&lt;div&gt;&lt;span style=&quot;color: #49e9a6&quot;&gt;&amp;nbsp;see the sun shining again. And don't worry&lt;/span&gt;&lt;/div&gt;&lt;div&gt;&lt;span style=&quot;color: #49e9a6&quot;&gt;&amp;nbsp;the child, he is waiting for us too, he forgive you.&lt;/span&gt;&lt;/div&gt;&lt;div&gt;&lt;span style=&quot;color: #49e9a6&quot;&gt;&amp;nbsp;scome on, they are happy with your arrive.&lt;/span&gt;&lt;/div&gt;&lt;div&gt;&lt;span style=&quot;color: #49e9a6&quot;&gt;&amp;nbsp;&lt;/span&gt;&lt;/div&gt;&lt;div&gt;&lt;span style=&quot;color: #49e9a6&quot;&gt;&amp;nbsp;You can lose that fun, but the memories,&lt;/span&gt;&lt;/div&gt;&lt;div&gt;&lt;span style=&quot;color: #49e9a6&quot;&gt;&amp;nbsp;they will stay in your heart forever.&lt;/span&gt;&lt;/div&gt;&lt;/div&gt;&lt;/div&gt;" style="text;html=1;resizable=0;points=[];autosize=1;align=left;verticalAlign=top;spacingTop=-4;" parent="1" vertex="1">
                    <mxGeometry x="650" y="1170" width="370" height="190" as="geometry"/>
                </mxCell>
                <mxCell id="r63pEHake4h-wbilJ2U2-45" value="" style="endArrow=none;dashed=1;html=1;rounded=0;fontFamily=Courier New;fontSize=12;exitX=0.5;exitY=1;exitDx=0;exitDy=0;" parent="1" edge="1">
                    <mxGeometry width="50" height="50" relative="1" as="geometry">
                        <mxPoint x="370" y="950" as="sourcePoint"/>
                        <mxPoint x="370" y="1030" as="targetPoint"/>
                    </mxGeometry>
                </mxCell>
                <mxCell id="r63pEHake4h-wbilJ2U2-46" value="&lt;div&gt;&lt;b style=&quot;font-size: 12px&quot;&gt;(Shutdown -p)&lt;/b&gt;&lt;br&gt;&lt;/div&gt;" style="rounded=0;whiteSpace=wrap;html=1;fontFamily=Courier New;fontSize=15;fillColor=#4D4D4D;strokeColor=#6c8ebf;" parent="1" vertex="1">
                    <mxGeometry x="310" y="1020" width="135" height="60" as="geometry"/>
                </mxCell>
                <mxCell id="r63pEHake4h-wbilJ2U2-47" value="&lt;div&gt;&lt;font style=&quot;font-size: 12px&quot;&gt;Go to Desktop for instruc&lt;/font&gt;&lt;span style=&quot;font-size: 12px&quot;&gt;tions&lt;/span&gt;&lt;/div&gt;&lt;div&gt;&lt;font style=&quot;font-size: 12px&quot;&gt;&lt;b&gt;(instructions.txt)&lt;/b&gt;&lt;br&gt;&lt;/font&gt;&lt;/div&gt;" style="rounded=0;whiteSpace=wrap;html=1;fontFamily=Courier New;fontSize=15;fillColor=#4D4D4D;strokeColor=#6c8ebf;" parent="1" vertex="1">
                    <mxGeometry x="516" y="860" width="168" height="80" as="geometry"/>
                </mxCell>
                <mxCell id="r63pEHake4h-wbilJ2U2-48" value="" style="endArrow=none;dashed=1;html=1;rounded=0;fontFamily=Courier New;fontSize=12;exitX=0.5;exitY=1;exitDx=0;exitDy=0;entryX=0.5;entryY=0;entryDx=0;entryDy=0;" parent="1" source="r63pEHake4h-wbilJ2U2-25" target="r63pEHake4h-wbilJ2U2-47" edge="1">
                    <mxGeometry width="50" height="50" relative="1" as="geometry">
                        <mxPoint x="379" y="840" as="sourcePoint"/>
                        <mxPoint x="379" y="920" as="targetPoint"/>
                    </mxGeometry>
                </mxCell>
                <mxCell id="r63pEHake4h-wbilJ2U2-53" value="&lt;div&gt;GIVE THE PASSWORD&lt;/div&gt;&lt;div&gt;OF THE HARD DISK&lt;br&gt;&lt;/div&gt;" style="text;html=1;resizable=0;points=[];autosize=1;align=left;verticalAlign=top;spacingTop=-4;" parent="1" vertex="1">
                    <mxGeometry x="832.5" y="72.5" width="140" height="30" as="geometry"/>
                </mxCell>
                <mxCell id="r63pEHake4h-wbilJ2U2-54" value="&lt;div&gt;GIVE DE INSTRUCCIONS &lt;br&gt;&lt;/div&gt;&lt;div&gt;TO OPEN FILE .WAV&lt;/div&gt;" style="text;html=1;resizable=0;points=[];autosize=1;align=left;verticalAlign=top;spacingTop=-4;" parent="1" vertex="1">
                    <mxGeometry x="505" y="950" width="160" height="30" as="geometry"/>
                </mxCell>
                <mxCell id="r63pEHake4h-wbilJ2U2-55" value="&lt;h1 style=&quot;font-size: 15px&quot;&gt;Ev1.Op2.Ev1.1.Op2-Ev1&lt;/h1&gt;&lt;div&gt;&lt;br&gt;&lt;/div&gt;" style="text;html=1;strokeColor=none;fillColor=none;spacing=5;spacingTop=-20;whiteSpace=wrap;overflow=hidden;rounded=0;fontFamily=Courier New;fontSize=12;" parent="1" vertex="1">
                    <mxGeometry x="330" y="700" width="230" height="40" as="geometry"/>
                </mxCell>
                <mxCell id="r63pEHake4h-wbilJ2U2-60" value="&lt;h1 style=&quot;font-size: 15px&quot;&gt;Ev1.Op2.Ev1.1.Op2-Ev1.Op1&lt;/h1&gt;&lt;div&gt;&lt;br&gt;&lt;/div&gt;" style="text;html=1;strokeColor=none;fillColor=none;spacing=5;spacingTop=-20;whiteSpace=wrap;overflow=hidden;rounded=0;fontFamily=Courier New;fontSize=12;" parent="1" vertex="1">
                    <mxGeometry x="566.5" y="735" width="260" height="40" as="geometry"/>
                </mxCell>
                <mxCell id="r63pEHake4h-wbilJ2U2-61" value="&lt;h1 style=&quot;font-size: 15px&quot;&gt;Ev1.Op2.Ev1.1.Op2-Ev1.Op2&lt;/h1&gt;&lt;div&gt;&lt;br&gt;&lt;/div&gt;" style="text;html=1;strokeColor=none;fillColor=none;spacing=5;spacingTop=-20;whiteSpace=wrap;overflow=hidden;rounded=0;fontFamily=Courier New;fontSize=12;" parent="1" vertex="1">
                    <mxGeometry x="130" y="880" width="260" height="40" as="geometry"/>
                </mxCell>
                <mxCell id="r63pEHake4h-wbilJ2U2-63" value="&lt;h1 style=&quot;font-size: 15px&quot;&gt;Ev1.Op2.Ev1.1.Op2-Ev1.Op2.End&lt;/h1&gt;&lt;div&gt;&lt;br&gt;&lt;/div&gt;" style="text;html=1;strokeColor=none;fillColor=none;spacing=5;spacingTop=-20;whiteSpace=wrap;overflow=hidden;rounded=0;fontFamily=Courier New;fontSize=12;" parent="1" vertex="1">
                    <mxGeometry x="90" y="990" width="280" height="40" as="geometry"/>
                </mxCell>
                <mxCell id="r63pEHake4h-wbilJ2U2-64" value="&lt;h1 style=&quot;font-size: 15px&quot;&gt;Ev1.Op2.Ev1.1.Op2-Ev1.Op1.End&lt;/h1&gt;&lt;div&gt;&lt;br&gt;&lt;/div&gt;" style="text;html=1;strokeColor=none;fillColor=none;spacing=5;spacingTop=-20;whiteSpace=wrap;overflow=hidden;rounded=0;fontFamily=Courier New;fontSize=12;" parent="1" vertex="1">
                    <mxGeometry x="610" y="820" width="260" height="40" as="geometry"/>
                </mxCell>
                <mxCell id="r63pEHake4h-wbilJ2U2-65" value="&lt;h1 style=&quot;font-size: 15px&quot;&gt;Ev1.Op2.Ev1.1.Op1-Ev1&lt;/h1&gt;" style="text;html=1;strokeColor=none;fillColor=none;spacing=5;spacingTop=-20;whiteSpace=wrap;overflow=hidden;rounded=0;fontFamily=Courier New;fontSize=12;" parent="1" vertex="1">
                    <mxGeometry x="565" y="505" width="225" height="40" as="geometry"/>
                </mxCell>
                <mxCell id="r63pEHake4h-wbilJ2U2-66" value="&lt;h1 style=&quot;font-size: 15px&quot;&gt;Ev1.Op2.Ev1.1.Op1-Ev1.1&lt;/h1&gt;" style="text;html=1;strokeColor=none;fillColor=none;spacing=5;spacingTop=-20;whiteSpace=wrap;overflow=hidden;rounded=0;fontFamily=Courier New;fontSize=12;" parent="1" vertex="1">
                    <mxGeometry x="850" y="500" width="225" height="40" as="geometry"/>
                </mxCell>
                <mxCell id="r63pEHake4h-wbilJ2U2-67" value="&lt;h1 style=&quot;font-size: 15px&quot;&gt;Ev1.Op2.Ev1.1.Op1-Ev1.2&lt;/h1&gt;" style="text;html=1;strokeColor=none;fillColor=none;spacing=5;spacingTop=-20;whiteSpace=wrap;overflow=hidden;rounded=0;fontFamily=Courier New;fontSize=12;" parent="1" vertex="1">
                    <mxGeometry x="962.5" y="715" width="225" height="40" as="geometry"/>
                </mxCell>
                <mxCell id="r63pEHake4h-wbilJ2U2-71" value="" style="endArrow=none;dashed=1;html=1;rounded=0;fontFamily=Courier New;fontSize=12;exitX=0.5;exitY=1;exitDx=0;exitDy=0;entryX=0.5;entryY=0;entryDx=0;entryDy=0;" parent="1" target="r63pEHake4h-wbilJ2U2-38" edge="1">
                    <mxGeometry width="50" height="50" relative="1" as="geometry">
                        <mxPoint x="849.9999999999995" y="880" as="sourcePoint"/>
                        <mxPoint x="850" y="910" as="targetPoint"/>
                    </mxGeometry>
                </mxCell>
                <mxCell id="r63pEHake4h-wbilJ2U2-73" value="&lt;h1 style=&quot;font-size: 15px&quot;&gt;Ev1.Op2.Ev1.1.Op1-Ev1.2-Op2.End&lt;/h1&gt;" style="text;html=1;strokeColor=none;fillColor=none;spacing=5;spacingTop=-20;whiteSpace=wrap;overflow=hidden;rounded=0;fontFamily=Courier New;fontSize=12;" parent="1" vertex="1">
                    <mxGeometry x="737.5" y="1122.5" width="225" height="40" as="geometry"/>
                </mxCell>
                <mxCell id="r63pEHake4h-wbilJ2U2-74" value="&lt;h1 style=&quot;font-size: 15px&quot;&gt;Ev1.Op2.Ev1.1.Op1-Ev1.2-Op1.End&lt;/h1&gt;" style="text;html=1;strokeColor=none;fillColor=none;spacing=5;spacingTop=-20;whiteSpace=wrap;overflow=hidden;rounded=0;fontFamily=Courier New;fontSize=12;" parent="1" vertex="1">
                    <mxGeometry x="1000" y="1122.5" width="225" height="40" as="geometry"/>
                </mxCell>
            </root>
        </mxGraphModel>
    </diagram>
</mxfile>